<?xml version="1.0" standalone="no"?>
<!DOCTYPE svg PUBLIC "-//W3C//DTD SVG 20010904//EN"
 "http://www.w3.org/TR/2001/REC-SVG-20010904/DTD/svg10.dtd">
<svg version="1.0" xmlns="http://www.w3.org/2000/svg"
 width="700.000000pt" height="700.000000pt" viewBox="0 0 700.000000 700.000000"
 preserveAspectRatio="xMidYMid meet">
<metadata>
Created by potrace 1.14, written by Peter Selinger 2001-2017
</metadata>
<g transform="translate(0.000000,700.000000) scale(0.100000,-0.100000)"
fill="#000000" stroke="none">
<path d="M0 3500 l0 -3500 3500 0 3500 0 0 3500 0 3500 -3500 0 -3500 0 0
-3500z m912 1024 l38 -7 215 -426 c219 -435 481 -949 549 -1077 49 -95 98
-118 150 -71 28 25 32 31 306 572 286 564 308 605 331 605 5 0 10 -306 11
-680 l3 -680 28 -27 27 -28 577 -3 c506 -2 583 -1 632 14 87 25 150 62 212
123 95 96 136 204 126 337 -7 94 -40 167 -107 238 -57 60 -124 99 -255 146
-160 59 -210 105 -202 191 2 26 14 63 26 83 l23 36 32 -20 c18 -11 94 -42 169
-69 185 -67 265 -112 352 -196 123 -119 174 -234 182 -407 7 -137 -7 -209 -63
-326 -36 -74 -59 -107 -122 -170 -122 -121 -248 -183 -415 -202 -90 -11 -1327
-14 -1400 -4 l-46 7 -3 298 c-3 260 -5 300 -19 315 -13 12 -21 14 -36 5 -17
-8 -167 -279 -214 -384 -7 -15 -22 -30 -33 -33 -12 -2 -97 -3 -191 -2 l-170 3
-256 505 c-254 501 -302 585 -329 585 -37 0 -40 -36 -40 -520 0 -515 1 -520
55 -520 51 0 55 20 56 330 1 295 6 348 25 324 7 -8 55 -98 108 -201 l96 -187
0 -248 c0 -139 -4 -255 -10 -263 -8 -13 -50 -15 -274 -15 -145 0 -268 4 -273
8 -12 13 -16 1993 -3 2017 9 16 29 24 80 28 8 1 32 -1 52 -4z m412 -17 c12
-12 118 -213 235 -445 220 -438 232 -458 277 -434 11 6 112 196 236 445 119
240 223 439 230 444 20 12 505 15 528 3 20 -10 20 -25 20 -721 0 -764 0 -762
51 -790 34 -18 767 -4 812 15 67 28 93 94 63 158 -23 47 -58 71 -181 123 -122
51 -176 86 -237 154 -51 57 -82 115 -103 198 -19 72 -19 114 0 187 48 183 180
318 351 356 60 14 1467 4 1616 -11 291 -30 479 -151 593 -384 192 -389 -2
-844 -409 -962 -95 -28 -272 -45 -416 -41 l-105 3 -3 343 c-1 188 1 342 6 342
8 0 84 -84 170 -188 l52 -64 0 -76 c0 -100 18 -122 100 -122 254 0 450 198
450 455 0 223 -130 391 -346 449 -74 21 -179 24 -985 36 -445 6 -657 6 -683
-1 -56 -16 -121 -81 -146 -145 -50 -135 2 -237 160 -310 222 -104 280 -149
328 -251 35 -78 38 -213 5 -284 -26 -58 -84 -123 -137 -154 -83 -48 -100 -49
-655 -36 -284 7 -528 14 -543 17 l-27 5 -3 709 -3 708 -23 25 c-42 44 -126 42
-169 -5 -11 -13 -141 -264 -289 -558 -338 -673 -323 -645 -339 -628 -15 15
-725 1424 -725 1438 0 10 48 16 153 18 59 2 71 -1 91 -21z m4106 -15 c244 -54
415 -152 557 -322 76 -90 163 -258 197 -382 137 -486 -79 -997 -509 -1203
-186 -89 -316 -108 -766 -109 -271 -1 -339 2 -352 13 -16 12 -17 73 -17 702 0
379 4 689 9 689 19 0 195 -203 210 -244 7 -17 11 -179 11 -451 l0 -424 24 -28
24 -28 229 1 c259 2 365 15 484 64 185 75 329 221 405 408 47 117 58 179 59
327 0 160 -16 228 -87 369 -117 235 -294 357 -588 407 -93 16 -1620 24 -1706
10 -86 -15 -138 -40 -207 -96 -188 -156 -282 -429 -214 -625 l16 -45 -33 38
c-82 92 -132 254 -122 389 16 226 151 418 361 514 116 53 111 53 1050 50 843
-2 873 -3 965 -24z"/>
</g>
</svg>
